<mxfile host="Electron" agent="Mozilla/5.0 (X11; Linux x86_64) AppleWebKit/537.36 (KHTML, like Gecko) draw.io/26.0.4 Chrome/128.0.6613.186 Electron/32.2.5 Safari/537.36" version="26.0.4">
  <diagram name="Page-1" id="jTfU-XotQyX7k1_vHH72">
    <mxGraphModel dx="1114" dy="1027" grid="1" gridSize="10" guides="1" tooltips="1" connect="1" arrows="1" fold="1" page="1" pageScale="1" pageWidth="850" pageHeight="1100" math="0" shadow="0">
      <root>
        <mxCell id="0" />
        <mxCell id="1" parent="0" />
        <mxCell id="9uW0--Qu6DeKL-FRqGq2-1" value="Users" style="text;html=1;align=center;verticalAlign=middle;whiteSpace=wrap;rounded=0;fontSize=50;" parent="1" vertex="1">
          <mxGeometry x="160" y="486" width="160" height="78" as="geometry" />
        </mxCell>
        <mxCell id="9uW0--Qu6DeKL-FRqGq2-5" value="HTTP Restricted&lt;div&gt;to Load Balancer&lt;/div&gt;" style="edgeStyle=orthogonalEdgeStyle;rounded=0;orthogonalLoop=1;jettySize=auto;html=1;exitX=1;exitY=0.25;exitDx=0;exitDy=0;exitPerimeter=0;" parent="1" source="9uW0--Qu6DeKL-FRqGq2-2" target="9uW0--Qu6DeKL-FRqGq2-3" edge="1">
          <mxGeometry relative="1" as="geometry">
            <Array as="points">
              <mxPoint x="690" y="506" />
              <mxPoint x="690" y="506" />
            </Array>
          </mxGeometry>
        </mxCell>
        <mxCell id="9uW0--Qu6DeKL-FRqGq2-6" style="edgeStyle=orthogonalEdgeStyle;rounded=0;orthogonalLoop=1;jettySize=auto;html=1;entryX=1;entryY=0.75;entryDx=0;entryDy=0;entryPerimeter=0;" parent="1" source="9uW0--Qu6DeKL-FRqGq2-3" target="9uW0--Qu6DeKL-FRqGq2-2" edge="1">
          <mxGeometry relative="1" as="geometry">
            <Array as="points">
              <mxPoint x="780" y="544" />
              <mxPoint x="780" y="544" />
            </Array>
          </mxGeometry>
        </mxCell>
        <mxCell id="9uW0--Qu6DeKL-FRqGq2-7" style="edgeStyle=orthogonalEdgeStyle;rounded=0;orthogonalLoop=1;jettySize=auto;html=1;exitX=0;exitY=0.75;exitDx=0;exitDy=0;exitPerimeter=0;entryX=1;entryY=0.75;entryDx=0;entryDy=0;" parent="1" source="9uW0--Qu6DeKL-FRqGq2-2" target="9uW0--Qu6DeKL-FRqGq2-1" edge="1">
          <mxGeometry relative="1" as="geometry" />
        </mxCell>
        <mxCell id="9uW0--Qu6DeKL-FRqGq2-2" value="ELB - Elastic Load Balancer" style="sketch=0;points=[[0,0,0],[0.25,0,0],[0.5,0,0],[0.75,0,0],[1,0,0],[0,1,0],[0.25,1,0],[0.5,1,0],[0.75,1,0],[1,1,0],[0,0.25,0],[0,0.5,0],[0,0.75,0],[1,0.25,0],[1,0.5,0],[1,0.75,0]];outlineConnect=0;fontColor=#232F3E;fillColor=#8C4FFF;strokeColor=#ffffff;dashed=0;verticalLabelPosition=bottom;verticalAlign=top;align=center;html=1;fontSize=12;fontStyle=0;aspect=fixed;shape=mxgraph.aws4.resourceIcon;resIcon=mxgraph.aws4.elastic_load_balancing;" parent="1" vertex="1">
          <mxGeometry x="540" y="486" width="78" height="78" as="geometry" />
        </mxCell>
        <mxCell id="9uW0--Qu6DeKL-FRqGq2-3" value="EC2" style="sketch=0;outlineConnect=0;fontColor=#232F3E;gradientColor=none;fillColor=#ED7100;strokeColor=none;dashed=0;verticalLabelPosition=middle;verticalAlign=middle;align=center;html=1;fontSize=12;fontStyle=0;aspect=fixed;pointerEvents=1;shape=mxgraph.aws4.instance2;labelPosition=center;" parent="1" vertex="1">
          <mxGeometry x="840" y="486" width="78" height="78" as="geometry" />
        </mxCell>
        <mxCell id="9uW0--Qu6DeKL-FRqGq2-4" value="&amp;nbsp;HTTPS / HTTP&amp;nbsp;&lt;div&gt;From anywhere&lt;/div&gt;" style="edgeStyle=orthogonalEdgeStyle;rounded=0;orthogonalLoop=1;jettySize=auto;html=1;exitX=1;exitY=0.25;exitDx=0;exitDy=0;entryX=0;entryY=0.25;entryDx=0;entryDy=0;entryPerimeter=0;" parent="1" source="9uW0--Qu6DeKL-FRqGq2-1" target="9uW0--Qu6DeKL-FRqGq2-2" edge="1">
          <mxGeometry relative="1" as="geometry" />
        </mxCell>
      </root>
    </mxGraphModel>
  </diagram>
</mxfile>
